<svg t="1629445387251" class="icon" viewBox="0 0 1024 1024" version="1.1" xmlns="http://www.w3.org/2000/svg" p-id="7786" width="200" height="200"><path d="M691.8144 312.5248l-156.672 300.4416v174.4896h-61.44v-173.2608l-152.3712-301.6704h70.0416l103.2192 210.7392s4.3008 9.8304 11.0592 30.72h1.2288c3.072-8.6016 6.7584-18.432 12.288-30.72L626.688 312.5248h65.1264z" fill="#42b983" p-id="7787"></path><path d="M504.4224 55.7056c-254.3616 0-460.8 206.4384-460.8 460.8s206.4384 460.8 460.8 460.8 460.8-206.4384 460.8-460.8-206.4384-460.8-460.8-460.8z m0 866.9184c-223.6416 0-404.8896-181.248-404.8896-404.8896S280.7808 112.8448 504.4224 112.8448 909.312 294.0928 909.312 517.7344s-181.248 404.8896-404.8896 404.8896z" fill="#42b983" p-id="7788"></path></svg>